<svg width="300" height="300" xmlns="http://www.w3.org/2000/svg" viewBox="0 0 400 400">
 <g>
  <path fill-rule="evenodd" fill="#f5f6ff" d="m188.56,16.446c-0.418,0.164 -1.3,0.316 -1.96,0.339c-0.66,0.022 -1.542,0.299 -1.959,0.615c-0.417,0.316 -0.912,0.48 -1.1,0.364c-0.188,-0.116 -0.341,-0.033 -0.341,0.185c0,0.219 -0.366,0.513 -0.813,0.655c-1.202,0.382 -6.629,5.928 -13.587,13.886c-0.55,0.629 -1.81,2.014 -2.8,3.078c-0.99,1.063 -2.88,3.151 -4.2,4.639c-3.164,3.567 -3.245,3.659 -5.8,6.585c-1.21,1.385 -3.377,3.754 -4.816,5.263c-1.439,1.51 -2.559,2.745 -2.49,2.745c0.158,0 -2.077,2.504 -3.794,4.251c-0.715,0.727 -1.3,1.423 -1.3,1.546c0,0.123 -0.765,1.004 -1.7,1.957c-0.935,0.953 -3.05,3.221 -4.7,5.042c-1.65,1.82 -3.513,3.87 -4.139,4.556c-0.627,0.687 -2.067,2.322 -3.2,3.636c-1.134,1.313 -2.556,2.882 -3.161,3.486c-0.605,0.605 -1.1,1.296 -1.1,1.536c0,0.241 -0.18,0.326 -0.4,0.19c-0.22,-0.136 -0.4,0.001 -0.4,0.304c0,0.304 -0.405,0.921 -0.9,1.371c-0.495,0.451 -2.16,2.225 -3.7,3.942c-1.54,1.717 -3.335,3.676 -3.99,4.353c-0.654,0.676 -1.991,2.212 -2.971,3.412c-0.979,1.199 -2.514,2.929 -3.41,3.842c-0.896,0.914 -2.529,2.661 -3.629,3.882c-5.88,6.531 -7.063,7.866 -7.823,8.833c-0.458,0.581 -1.675,1.93 -2.705,2.997c-1.029,1.067 -2.592,2.802 -3.472,3.855c-2.032,2.434 -2.591,3.008 -2.929,3.012c-0.149,0.001 -0.721,0.668 -1.271,1.482c-0.55,0.814 -1.72,2.215 -2.6,3.115c-0.88,0.9 -2.68,2.875 -4,4.389c-1.32,1.515 -2.985,3.337 -3.7,4.049c-0.715,0.712 -1.3,1.386 -1.3,1.497c0,0.111 -0.675,0.908 -1.5,1.77c-0.825,0.863 -2.67,2.882 -4.1,4.486c-1.43,1.605 -2.78,3.12 -3,3.367c-0.895,1.003 -7.296,8.14 -8.6,9.588c-0.77,0.855 -2.21,2.402 -3.2,3.438c-1.602,1.676 -4.314,4.719 -6.789,7.616c-0.469,0.55 -1.699,1.917 -2.732,3.038c-1.034,1.12 -3.049,3.357 -4.479,4.971c-1.43,1.614 -3.455,3.83 -4.5,4.925c-1.045,1.095 -1.9,2.067 -1.9,2.16c0,0.093 -0.766,0.935 -1.701,1.871c-0.936,0.935 -2.193,2.345 -2.793,3.132c-0.601,0.787 -1.927,2.302 -2.948,3.367c-1.02,1.065 -2.203,2.386 -2.628,2.936c-0.425,0.55 -2.02,2.35 -3.545,4c-3.219,3.484 -7.585,9.281 -7.585,10.071c0,0.299 -0.45,1.206 -1,2.015c-0.55,0.809 -1,1.736 -1,2.059c0,0.324 -0.135,0.648 -0.3,0.722c-0.424,0.188 -2.9,5.132 -2.9,5.789c0,0.299 -0.18,0.544 -0.4,0.544c-0.22,0 -0.4,0.362 -0.4,0.805c0,0.443 -0.164,1.118 -0.364,1.5c-0.675,1.288 -2.036,4.997 -2.036,5.548c0,0.301 -0.18,0.547 -0.4,0.547c-0.22,0 -0.4,0.594 -0.4,1.32c0,0.726 -0.151,1.491 -0.336,1.7c-0.184,0.209 -0.558,1.46 -0.829,2.78c-0.575,2.789 -1.136,5.095 -1.662,6.828c-0.205,0.676 -0.373,1.711 -0.373,2.3c0,0.59 -0.155,1.072 -0.344,1.072c-0.19,0 -0.46,1.035 -0.601,2.3c-0.14,1.265 -0.425,3.2 -0.631,4.3c-0.491,2.61 -0.517,22.898 -0.034,26c0.205,1.32 0.573,3.39 0.816,4.6c0.244,1.21 0.542,2.785 0.662,3.5c0.121,0.715 0.36,1.3 0.532,1.3c0.172,0 0.396,0.585 0.499,1.3c0.198,1.375 1.147,4.181 2.366,6.996c0.404,0.932 0.735,1.967 0.735,2.3c0,0.332 0.18,0.604 0.4,0.604c0.22,0 0.4,0.27 0.4,0.6c0,0.33 0.18,0.6 0.4,0.6c0.22,0 0.4,0.45 0.4,1c0,0.55 0.146,1 0.325,1c0.179,0 0.573,0.63 0.875,1.4c0.302,0.77 0.696,1.4 0.875,1.4c0.179,0 0.325,0.27 0.325,0.6c0,0.33 0.18,0.6 0.4,0.6c0.22,0 0.4,0.194 0.4,0.432c0,0.238 0.675,1.423 1.5,2.633c0.825,1.21 1.68,2.483 1.9,2.828c1.756,2.753 10.871,11.804 14.2,14.1c1.43,0.986 2.92,2.066 3.312,2.4c0.918,0.783 4.282,2.775 5.188,3.071c0.385,0.126 0.7,0.388 0.7,0.583c0,0.194 0.45,0.353 1,0.353c0.55,0 1,0.18 1,0.4c0,0.22 0.36,0.4 0.8,0.4c0.44,0 0.8,0.18 0.8,0.4c0,0.22 0.384,0.4 0.854,0.4c1.073,0 4.021,0.825 4.526,1.267c0.209,0.183 0.752,0.333 1.206,0.333c0.454,0 1.81,0.36 3.014,0.8c1.204,0.44 2.56,0.8 3.014,0.8c0.454,0 0.997,0.149 1.206,0.33c0.209,0.182 1.19,0.563 2.18,0.846c0.99,0.283 2.16,0.661 2.6,0.839c0.44,0.179 1.25,0.413 1.8,0.522c0.55,0.108 1.99,0.498 3.2,0.866c1.21,0.368 3.37,0.982 4.8,1.364c1.43,0.382 3.05,0.882 3.6,1.113c0.55,0.23 1.63,0.541 2.4,0.692c0.77,0.151 1.76,0.419 2.2,0.596c1.741,0.699 3.7,1.232 4.528,1.232c0.48,0 0.872,0.18 0.872,0.4c0,0.22 0.381,0.4 0.847,0.4c0.697,0 3.604,0.824 6.753,1.915c0.33,0.114 1.047,0.282 1.593,0.373c0.545,0.09 1.085,0.287 1.2,0.438c0.114,0.151 0.657,0.337 1.207,0.415c0.55,0.077 1.303,0.302 1.674,0.5c0.37,0.197 1.146,0.359 1.723,0.359c0.578,0 0.962,0.143 0.854,0.317c-0.107,0.174 0.37,0.36 1.061,0.413c0.691,0.052 1.354,0.225 1.472,0.384c0.119,0.159 0.756,0.349 1.416,0.422c0.66,0.073 1.371,0.297 1.58,0.498c0.209,0.201 0.783,0.366 1.276,0.366c0.493,0 1.008,0.18 1.144,0.4c0.136,0.22 0.766,0.4 1.4,0.4c0.634,0 1.264,0.18 1.4,0.4c0.136,0.22 0.766,0.4 1.4,0.4c0.634,0 1.264,0.18 1.4,0.4c0.136,0.22 0.643,0.4 1.127,0.4c0.484,0 2.326,0.512 4.094,1.137c1.769,0.625 4.557,1.46 6.197,1.856c1.64,0.395 3.481,0.97 4.092,1.278c0.61,0.308 1.33,0.524 1.6,0.481c0.269,-0.043 0.76,0.015 1.09,0.128c2.283,0.787 3.572,1.12 4.328,1.12c0.48,0 0.872,0.18 0.872,0.4c0,0.22 0.529,0.4 1.176,0.4c0.647,0 1.288,0.18 1.424,0.4c0.136,0.22 0.777,0.4 1.424,0.4c0.647,0 1.176,0.18 1.176,0.4c0,0.22 0.352,0.4 0.781,0.4c0.43,0 1.195,0.161 1.7,0.358c0.506,0.197 1.729,0.575 2.719,0.839c0.99,0.265 2.113,0.643 2.495,0.842c0.382,0.199 1.147,0.361 1.7,0.361c0.553,0 1.005,0.142 1.005,0.315c0,0.173 0.582,0.359 1.293,0.413c0.712,0.055 1.468,0.273 1.68,0.485c0.213,0.213 0.79,0.387 1.283,0.387c0.493,0 1.008,0.18 1.144,0.4c0.136,0.22 0.747,0.4 1.357,0.4c0.61,0 1.234,0.125 1.387,0.277c0.152,0.152 0.673,0.337 1.158,0.411c0.484,0.074 1.056,0.31 1.269,0.523c0.214,0.214 0.795,0.389 1.29,0.389c0.496,0 1.315,0.17 1.82,0.378c0.506,0.207 2.269,0.767 3.919,1.244c4.112,1.188 8.079,2.393 8.8,2.675c0.752,0.293 0.686,0.276 2.593,0.657c0.876,0.174 1.956,0.515 2.4,0.757c0.444,0.242 1.077,0.478 1.407,0.524c1.961,0.273 4.384,0.914 5.6,1.481c0.77,0.359 1.888,0.713 2.485,0.787c0.597,0.073 1.212,0.26 1.367,0.415c0.155,0.155 0.691,0.282 1.191,0.282c0.5,0 1,0.146 1.11,0.324c0.11,0.178 1.391,0.572 2.847,0.876c1.456,0.304 2.737,0.698 2.847,0.876c0.11,0.178 0.595,0.327 1.077,0.33c0.957,0.007 3.696,0.881 4.135,1.32c0.151,0.151 0.874,0.274 1.608,0.274c0.733,0 1.333,0.18 1.333,0.4c0,0.22 0.54,0.4 1.2,0.4c0.66,0 1.2,0.18 1.2,0.4c0,0.22 0.392,0.4 0.872,0.4c0.92,0 3.256,0.66 4.423,1.249c0.382,0.193 1.059,0.351 1.505,0.351c0.446,0 1.123,0.162 1.505,0.361c0.382,0.199 1.505,0.579 2.495,0.846c0.99,0.266 2.16,0.643 2.6,0.837c1.356,0.598 9.4,0.492 9.4,-0.124c0,-0.176 0.357,-0.32 0.794,-0.32c0.799,0 4.891,-2.296 5.139,-2.884c0.074,-0.174 0.347,-0.316 0.608,-0.316c0.26,0 0.74,-0.433 1.066,-0.963c0.326,-0.53 1.348,-1.835 2.272,-2.9c0.923,-1.065 2.903,-3.464 4.4,-5.331c1.496,-1.866 3.084,-3.756 3.528,-4.2c0.443,-0.443 1.556,-1.796 2.472,-3.006c0.916,-1.21 2.218,-2.729 2.893,-3.375c0.676,-0.646 1.228,-1.321 1.228,-1.499c0,-0.178 0.647,-1 1.438,-1.825c0.79,-0.826 1.914,-2.131 2.497,-2.901c0.583,-0.77 1.154,-1.49 1.268,-1.6c0.114,-0.11 1.01,-1.19 1.991,-2.4c0.98,-1.21 2.283,-2.729 2.894,-3.376c0.612,-0.647 1.112,-1.316 1.112,-1.487c0,-0.171 0.588,-0.901 1.307,-1.624c0.718,-0.722 1.748,-1.936 2.287,-2.697c0.881,-1.244 1.821,-2.338 4.706,-5.474c0.495,-0.538 0.9,-1.15 0.9,-1.36c0,-0.21 0.14,-0.382 0.31,-0.382c0.171,0 1.188,-1.161 2.26,-2.58c1.071,-1.419 2.192,-2.673 2.489,-2.787c0.298,-0.114 0.541,-0.402 0.541,-0.639c0,-0.237 0.405,-0.854 0.9,-1.372c0.495,-0.518 1.292,-1.454 1.771,-2.082c0.479,-0.627 1.244,-1.537 1.7,-2.023c0.456,-0.486 0.829,-0.999 0.829,-1.14c0,-0.141 0.54,-0.76 1.2,-1.377c0.66,-0.617 1.2,-1.29 1.2,-1.496c0,-0.206 0.8,-1.163 1.779,-2.127c0.978,-0.964 1.701,-1.83 1.607,-1.924c-0.094,-0.095 0.14,-0.46 0.521,-0.812c1.062,-0.982 3.821,-4.182 4.493,-5.211c0.33,-0.505 1.05,-1.42 1.6,-2.033c0.55,-0.613 2.074,-2.393 3.387,-3.956c1.313,-1.562 2.528,-2.841 2.7,-2.841c0.172,0 0.313,-0.179 0.313,-0.397c0,-0.426 1.354,-2.136 2.5,-3.157c0.385,-0.343 0.7,-0.788 0.7,-0.988c0,-0.2 0.32,-0.655 0.711,-1.011c0.392,-0.356 1.335,-1.457 2.096,-2.447c0.762,-0.99 2.016,-2.491 2.789,-3.335c0.772,-0.844 1.568,-1.834 1.769,-2.2c0.2,-0.366 0.575,-0.792 0.833,-0.948c0.258,-0.155 0.994,-1.052 1.636,-1.993c0.641,-0.94 1.907,-2.502 2.813,-3.47c2.357,-2.517 2.953,-3.222 2.953,-3.494c0,-0.131 0.54,-0.743 1.2,-1.36c0.66,-0.617 1.2,-1.259 1.2,-1.427c0,-0.168 0.266,-0.591 0.59,-0.939c2.962,-3.179 4.137,-4.539 5.559,-6.434c0.908,-1.21 2.222,-2.83 2.92,-3.6c1.203,-1.327 1.811,-2.031 3.431,-3.971c0.385,-0.461 0.7,-0.923 0.7,-1.027c0,-0.103 0.495,-0.741 1.1,-1.416c2.431,-2.712 3.15,-3.546 4.3,-4.982c0.66,-0.825 1.83,-2.254 2.6,-3.176c0.77,-0.922 2.03,-2.472 2.8,-3.444c0.77,-0.972 1.76,-2.142 2.2,-2.599c0.44,-0.458 1.275,-1.452 1.855,-2.209c0.58,-0.757 1.44,-1.826 1.912,-2.376c0.472,-0.55 1.347,-1.601 1.945,-2.336c0.599,-0.735 1.583,-1.799 2.188,-2.366c0.605,-0.567 1.1,-1.188 1.1,-1.381c0,-0.352 0.158,-0.561 2,-2.649c0.55,-0.623 1.45,-1.712 2,-2.421c0.55,-0.708 1.765,-2.105 2.7,-3.104c0.935,-0.999 1.7,-1.945 1.7,-2.102c0,-0.156 0.585,-0.938 1.3,-1.737c3.644,-4.07 5.334,-6.055 5.662,-6.648c0.199,-0.361 1.054,-1.324 1.9,-2.14c0.846,-0.816 1.538,-1.671 1.538,-1.9c0,-0.229 0.167,-0.416 0.371,-0.416c0.204,0 0.429,-0.241 0.5,-0.536c0.132,-0.55 2.862,-3.93 4.829,-5.979c0.605,-0.631 1.1,-1.247 1.1,-1.369c0,-0.122 0.316,-0.513 0.703,-0.869c0.386,-0.356 0.955,-1.139 1.264,-1.74c0.308,-0.602 0.892,-1.449 1.297,-1.884c0.405,-0.434 0.736,-1.056 0.736,-1.383c0,-0.326 0.18,-0.704 0.4,-0.84c0.22,-0.136 0.4,-0.676 0.4,-1.2c0,-0.524 0.166,-1.055 0.369,-1.181c0.629,-0.389 -0.025,-9.671 -0.72,-10.219c-0.442,-0.349 -1.249,-3.015 -1.249,-4.128c0,-0.59 -0.164,-1.072 -0.364,-1.072c-0.677,0 -1.49,-11.354 -0.898,-12.546c0.233,-0.47 0.513,-1.754 0.621,-2.854c0.32,-3.233 0.704,-5 1.085,-5c0.196,0 0.356,-0.439 0.356,-0.976c0,-0.537 0.18,-1.088 0.4,-1.224c0.22,-0.136 0.4,-0.957 0.4,-1.824c0,-0.867 0.18,-1.576 0.4,-1.576c0.233,0 0.4,-1.333 0.4,-3.2c0,-1.867 -0.167,-3.2 -0.4,-3.2c-0.22,0 -0.404,-0.585 -0.409,-1.3c-0.005,-0.715 -0.361,-1.75 -0.791,-2.3c-0.43,-0.55 -0.786,-1.143 -0.791,-1.317c-0.01,-0.365 -0.232,-0.661 -2.235,-2.983c-0.807,-0.935 -1.682,-1.7 -1.945,-1.7c-0.263,0 -0.848,-0.345 -1.3,-0.766c-2.457,-2.288 -10.136,-2.902 -13.552,-1.083c-1.084,0.577 -2.2,1.049 -2.481,1.049c-0.809,0 -5.165,4.6 -5.946,6.278c-0.39,0.837 -0.892,1.647 -1.118,1.8c-0.225,0.153 -0.285,0.402 -0.134,0.553c0.15,0.151 0.085,0.626 -0.145,1.057c-0.23,0.43 -0.505,1.256 -0.61,1.835c-0.105,0.579 -0.339,1.238 -0.521,1.465c-0.183,0.226 -0.463,1.222 -0.623,2.212c-0.161,0.99 -0.481,2.159 -0.712,2.598c-0.231,0.439 -0.466,1.429 -0.522,2.2c-0.056,0.771 -0.324,2.662 -0.597,4.202c-0.628,3.545 -0.644,14.88 -0.027,19.6c0.717,5.495 0.726,5.551 1.026,6.496c0.155,0.488 0.089,1.115 -0.145,1.395c-0.235,0.28 -1.146,1.319 -2.025,2.309c-0.878,0.99 -1.597,1.916 -1.597,2.058c0,0.141 -0.565,0.861 -1.255,1.6c-0.69,0.738 -1.725,1.972 -2.3,2.742c-0.575,0.77 -1.621,2.03 -2.326,2.8c-1.163,1.271 -5.487,6.41 -6.222,7.395c-0.166,0.223 -1.021,1.215 -1.9,2.205c-0.878,0.99 -1.597,1.927 -1.597,2.082c0,0.155 -0.41,0.695 -0.912,1.2c-0.501,0.505 -1.196,1.327 -1.544,1.827c-0.347,0.499 -1.242,1.579 -1.988,2.4c-0.746,0.82 -2.166,2.481 -3.155,3.691c-0.988,1.21 -1.978,2.4 -2.199,2.645c-0.221,0.244 -0.942,1.106 -1.602,1.915c-0.66,0.808 -1.565,1.868 -2.012,2.355c-0.446,0.487 -1.076,1.264 -1.4,1.728c-0.627,0.899 -3.05,3.812 -5.988,7.201c-0.99,1.141 -2.34,2.741 -3,3.555c-0.66,0.813 -1.599,1.956 -2.086,2.54c-0.488,0.583 -1.814,2.231 -2.948,3.661c-1.133,1.43 -2.354,2.889 -2.713,3.243c-0.989,0.973 -2.453,2.738 -2.453,2.957c0,0.106 -0.506,0.69 -1.124,1.297c-0.618,0.606 -1.544,1.733 -2.057,2.503c-0.514,0.77 -1.472,1.895 -2.131,2.5c-0.658,0.605 -1.037,1.103 -0.842,1.106c0.195,0.003 0.156,0.138 -0.086,0.3c-0.424,0.283 -3.894,4.38 -6.332,7.476c-0.645,0.818 -1.635,1.994 -2.2,2.613c-1.19,1.302 -1.721,1.943 -3.634,4.387c-0.766,0.979 -1.979,2.38 -2.694,3.113c-0.715,0.732 -1.303,1.461 -1.306,1.618c-0.004,0.158 -0.561,0.917 -1.238,1.687c-0.678,0.77 -2.027,2.3 -2.998,3.4c-0.971,1.1 -2.495,2.978 -3.386,4.172c-0.891,1.195 -2.329,2.903 -3.196,3.796c-0.867,0.893 -1.576,1.755 -1.576,1.915c0,0.159 -0.63,0.92 -1.4,1.69c-0.77,0.77 -1.4,1.509 -1.4,1.642c0,0.133 -0.234,0.477 -0.521,0.763c-0.286,0.287 -1.141,1.287 -1.9,2.224c-0.758,0.937 -1.743,2.085 -2.189,2.551c-0.445,0.466 -1.345,1.564 -2,2.441c-1.308,1.752 -2.752,3.474 -3.999,4.767c-0.444,0.462 -1.251,1.469 -1.791,2.239c-0.54,0.77 -1.347,1.777 -1.791,2.239c-1.56,1.618 -3.009,3.357 -3.009,3.611c0,0.141 -0.421,0.638 -0.936,1.103c-0.515,0.466 -1.46,1.554 -2.1,2.419c-1.361,1.837 -3.127,3.939 -4.633,5.512c-0.588,0.614 -0.986,1.116 -0.884,1.116c0.226,0 -0.598,1.021 -1.547,1.917c-0.385,0.363 -0.7,0.807 -0.7,0.985c0,0.179 -0.585,0.931 -1.3,1.672c-0.715,0.741 -2.11,2.279 -3.1,3.418c-0.99,1.139 -2.025,2.314 -2.3,2.611c-0.275,0.297 -0.5,0.643 -0.5,0.768c0,0.126 -0.368,0.634 -0.819,1.129c-1.058,1.163 -1.465,1.649 -3.605,4.296c-0.977,1.208 -1.966,2.378 -2.199,2.6c-0.232,0.222 -0.942,1.124 -1.576,2.004c-0.634,0.88 -1.659,2.031 -2.277,2.558c-0.618,0.527 -1.124,1.186 -1.124,1.466c0,0.383 -0.466,0.337 -1.906,-0.19c-1.049,-0.383 -2.116,-0.627 -2.373,-0.541c-0.257,0.086 -1.036,-0.139 -1.731,-0.498c-0.695,-0.36 -1.366,-0.552 -1.49,-0.428c-0.125,0.124 -0.445,0.044 -0.713,-0.178c-0.581,-0.482 -7.357,-2.392 -9.487,-2.674c-0.825,-0.11 -1.5,-0.36 -1.5,-0.557c0,-0.197 -0.439,-0.358 -0.976,-0.358c-0.537,0 -1.088,-0.18 -1.224,-0.4c-0.136,-0.22 -0.766,-0.4 -1.4,-0.4c-0.634,0 -1.264,-0.18 -1.4,-0.4c-0.136,-0.22 -0.766,-0.4 -1.4,-0.4c-0.634,0 -1.264,-0.18 -1.4,-0.4c-0.136,-0.22 -0.777,-0.4 -1.424,-0.4c-0.647,0 -1.176,-0.16 -1.176,-0.356c0,-0.196 -0.585,-0.458 -1.3,-0.581c-3.012,-0.521 -3.9,-0.773 -3.9,-1.108c0,-0.195 -0.63,-0.355 -1.4,-0.355c-0.77,0 -1.4,-0.16 -1.4,-0.355c0,-0.195 -0.495,-0.454 -1.1,-0.575c-2.717,-0.547 -3.552,-0.751 -4.3,-1.055c-0.44,-0.178 -1.61,-0.557 -2.6,-0.841c-0.99,-0.285 -2.017,-0.681 -2.282,-0.88c-0.266,-0.2 -0.639,-0.267 -0.829,-0.149c-0.191,0.118 -0.849,-0.047 -1.463,-0.365c-0.615,-0.319 -1.536,-0.58 -2.048,-0.58c-0.512,0 -1.044,-0.183 -1.182,-0.407c-0.138,-0.223 -0.415,-0.305 -0.615,-0.181c-0.201,0.124 -0.773,0 -1.273,-0.274c-0.499,-0.274 -1.268,-0.556 -1.708,-0.627c-0.865,-0.138 -8.118,-2.332 -9.876,-2.987c-0.592,-0.221 -1.254,-0.291 -1.472,-0.156c-0.218,0.135 -0.51,0.062 -0.648,-0.161c-0.138,-0.224 -0.612,-0.407 -1.054,-0.407c-0.441,0 -1.196,-0.214 -1.676,-0.475c-0.481,-0.262 -1.144,-0.527 -1.474,-0.59c-2.667,-0.508 -3.237,-0.671 -3.429,-0.981c-0.12,-0.195 -0.737,-0.354 -1.371,-0.354c-0.634,0 -1.264,-0.18 -1.4,-0.4c-0.136,-0.22 -0.766,-0.4 -1.4,-0.4c-0.634,0 -1.264,-0.18 -1.4,-0.4c-0.136,-0.22 -0.689,-0.4 -1.229,-0.4c-0.54,0 -1.294,-0.162 -1.676,-0.361c-0.382,-0.199 -1.505,-0.576 -2.495,-0.839c-0.99,-0.263 -2.113,-0.64 -2.495,-0.839c-0.382,-0.199 -1.147,-0.361 -1.7,-0.361c-0.553,0 -1.005,-0.18 -1.005,-0.4c0,-0.22 -0.352,-0.4 -0.781,-0.4c-0.43,0 -1.195,-0.161 -1.7,-0.358c-0.506,-0.197 -1.729,-0.575 -2.719,-0.839c-0.99,-0.265 -2.113,-0.643 -2.495,-0.842c-0.382,-0.199 -1.136,-0.361 -1.676,-0.361c-0.54,0 -1.093,-0.18 -1.229,-0.4c-0.136,-0.22 -0.766,-0.4 -1.4,-0.4c-0.634,0 -1.264,-0.18 -1.4,-0.4c-0.136,-0.22 -0.573,-0.4 -0.971,-0.4c-0.398,0 -2.322,-0.521 -4.276,-1.158c-2.952,-0.963 -5.564,-1.689 -6.553,-1.824c-0.11,-0.015 -0.74,-0.233 -1.4,-0.485c-0.66,-0.252 -1.56,-0.593 -2,-0.759c-0.44,-0.166 -0.927,-0.275 -1.082,-0.243c-0.155,0.031 -1.865,-0.45 -3.8,-1.07c-1.935,-0.62 -4.598,-1.372 -5.918,-1.671c-1.32,-0.299 -2.497,-0.683 -2.616,-0.854c-0.118,-0.171 -0.793,-0.354 -1.5,-0.408c-0.706,-0.054 -1.284,-0.24 -1.284,-0.413c0,-0.173 -0.54,-0.315 -1.2,-0.315c-0.66,0 -1.2,-0.18 -1.2,-0.4c0,-0.22 -0.381,-0.4 -0.847,-0.4c-0.467,0 -1.952,-0.347 -3.3,-0.772c-1.349,-0.425 -3.263,-0.996 -4.253,-1.27c-0.99,-0.273 -1.971,-0.646 -2.18,-0.828c-0.209,-0.181 -0.974,-0.33 -1.7,-0.33c-0.726,0 -1.32,-0.18 -1.32,-0.4c0,-0.22 -0.529,-0.4 -1.176,-0.4c-0.647,0 -1.288,-0.18 -1.424,-0.4c-0.136,-0.22 -0.676,-0.4 -1.2,-0.4c-0.524,0 -1.064,-0.18 -1.2,-0.4c-0.136,-0.22 -0.618,-0.4 -1.071,-0.4c-0.758,0 -5.04,-1.257 -6.929,-2.034c-0.44,-0.181 -1.61,-0.538 -2.6,-0.793c-0.99,-0.256 -2.027,-0.529 -2.304,-0.608c-0.278,-0.079 -0.594,-0.146 -0.703,-0.149c-0.463,-0.013 -4.064,-1.997 -4.857,-2.676c-0.475,-0.407 -1.641,-1.37 -2.59,-2.14c-1.57,-1.274 -4.163,-3.829 -5.458,-5.379c-0.281,-0.337 -1.269,-1.83 -2.194,-3.317c-0.925,-1.487 -1.821,-2.764 -1.991,-2.838c-0.169,-0.074 -0.206,-0.299 -0.082,-0.5c0.124,-0.201 0.036,-0.366 -0.197,-0.366c-0.233,0 -0.424,-0.428 -0.424,-0.951c0,-0.523 -0.268,-1.173 -0.596,-1.445c-0.327,-0.272 -0.512,-0.63 -0.41,-0.795c0.102,-0.165 -0.17,-1.036 -0.604,-1.935c-0.435,-0.9 -0.79,-2.058 -0.79,-2.575c0,-0.516 -0.18,-1.119 -0.4,-1.339c-0.22,-0.22 -0.425,-1.201 -0.456,-2.18c-0.031,-0.979 -0.161,-1.96 -0.289,-2.18c-0.648,-1.115 -0.716,-15.699 -0.076,-16.339c0.231,-0.231 0.421,-1.097 0.421,-1.922c0,-0.826 0.167,-1.915 0.37,-2.42c0.204,-0.506 0.603,-1.774 0.887,-2.819c0.285,-1.045 0.658,-1.9 0.83,-1.9c0.172,0 0.313,-0.242 0.313,-0.539c0,-2.968 6.696,-8.661 10.188,-8.661c0.531,0 1.076,-0.18 1.212,-0.4c0.328,-0.531 10.072,-0.531 10.4,0c0.136,0.22 0.687,0.4 1.224,0.4c0.537,0 0.976,0.142 0.976,0.315c0,0.173 0.378,0.343 0.84,0.378c0.461,0.035 1.984,0.433 3.383,0.885c1.399,0.452 2.867,0.83 3.261,0.84c0.394,0.009 1.436,0.294 2.316,0.633c0.88,0.338 1.87,0.66 2.2,0.715c0.699,0.116 4.349,1.169 7.853,2.266c1.348,0.422 2.923,0.768 3.5,0.768c0.576,0 1.047,0.142 1.047,0.315c0,0.173 0.391,0.344 0.87,0.38c0.478,0.036 1.333,0.234 1.9,0.439c0.566,0.205 1.84,0.592 2.83,0.859c0.99,0.267 2.113,0.647 2.495,0.846c0.382,0.199 1.136,0.361 1.676,0.361c0.54,0 1.08,0.159 1.2,0.354c0.121,0.195 0.716,0.447 1.324,0.562c2.356,0.443 3.456,0.736 4.141,1.103c0.391,0.21 1.163,0.381 1.714,0.381c0.552,0 1.114,0.18 1.25,0.4c0.136,0.22 0.777,0.4 1.424,0.4c0.647,0 1.176,0.18 1.176,0.4c0,0.22 0.427,0.4 0.95,0.4c0.522,0 1.676,0.256 2.564,0.569c0.887,0.314 1.72,0.464 1.85,0.334c0.13,-0.13 0.236,-0.056 0.236,0.164c0,0.22 0.266,0.4 0.592,0.4c0.527,0 1.585,0.281 5.008,1.333c0.55,0.169 1.81,0.529 2.8,0.801c0.99,0.271 2.07,0.589 2.4,0.706c0.33,0.117 0.908,0.274 1.285,0.348c0.376,0.075 2.928,0.768 5.67,1.54c2.742,0.773 5.349,1.405 5.792,1.405c0.443,0 0.917,0.18 1.053,0.4c0.136,0.22 0.676,0.4 1.2,0.4c0.524,0 1.064,0.18 1.2,0.4c0.136,0.22 0.867,0.4 1.624,0.4c0.757,0 1.376,0.18 1.376,0.4c0,0.22 0.529,0.4 1.176,0.4c0.647,0 1.288,0.18 1.424,0.4c0.136,0.22 0.867,0.4 1.624,0.4c0.757,0 1.376,0.16 1.376,0.356c0,0.196 0.63,0.466 1.4,0.6c0.77,0.134 2.03,0.354 2.8,0.488c0.77,0.134 1.4,0.404 1.4,0.6c0,0.196 0.529,0.356 1.176,0.356c0.647,0 1.288,0.18 1.424,0.4c0.136,0.22 0.766,0.4 1.4,0.4c0.634,0 1.264,0.18 1.4,0.4c0.136,0.22 0.777,0.4 1.424,0.4c0.647,0 1.176,0.18 1.176,0.4c0,0.22 0.529,0.4 1.176,0.4c0.647,0 1.288,0.18 1.424,0.4c0.136,0.22 0.766,0.4 1.4,0.4c0.634,0 1.264,0.18 1.4,0.4c0.136,0.22 0.629,0.4 1.095,0.4c0.736,0 1.92,0.307 4.305,1.117c0.33,0.112 0.96,0.268 1.4,0.348c0.44,0.079 1.07,0.264 1.4,0.411c0.33,0.147 0.87,0.311 1.2,0.365c0.33,0.053 1.185,0.278 1.9,0.5c0.715,0.222 1.3,0.304 1.3,0.182c0,-0.121 0.232,-0.028 0.516,0.207c0.283,0.235 1.228,0.609 2.1,0.831c0.871,0.222 2.664,0.699 3.984,1.062c1.32,0.362 2.985,0.75 3.7,0.861c0.715,0.112 1.3,0.364 1.3,0.56c0,0.196 0.619,0.356 1.376,0.356c0.757,0 1.488,0.18 1.624,0.4c0.136,0.22 0.741,0.4 1.344,0.4c0.603,0 1.267,0.15 1.476,0.333c0.505,0.442 3.453,1.267 4.526,1.267c0.47,0 0.854,0.18 0.854,0.4c0,0.22 0.529,0.4 1.176,0.4c0.647,0 1.288,0.18 1.424,0.4c0.136,0.22 0.766,0.4 1.4,0.4c0.634,0 1.264,0.18 1.4,0.4c0.136,0.22 0.779,0.4 1.429,0.4c0.65,0 1.494,0.159 1.876,0.354c3.406,1.735 14.095,2.948 14.095,1.599c0,-0.194 0.329,-0.353 0.732,-0.353c0.975,0 4.523,-1.812 4.193,-2.141c-0.142,-0.143 0.087,-0.271 0.508,-0.286c0.613,-0.022 5.114,-4.785 8.769,-9.279c2.179,-2.679 4.062,-4.891 5.121,-6.015c1.587,-1.685 5.952,-6.537 7.088,-7.879c0.465,-0.55 1.238,-1.454 1.717,-2.009c0.48,-0.555 1.588,-1.905 2.463,-3c0.875,-1.095 2.27,-2.673 3.1,-3.506c0.83,-0.834 1.509,-1.652 1.509,-1.818c0,-0.166 1.26,-1.624 2.8,-3.239c1.54,-1.615 2.8,-3.059 2.8,-3.21c0,-0.151 0.405,-0.636 0.9,-1.079c0.926,-0.828 1.477,-1.453 4.89,-5.55c1.094,-1.314 2.309,-2.68 2.7,-3.036c0.39,-0.356 0.71,-0.753 0.71,-0.884c0,-0.13 0.72,-0.971 1.6,-1.869c0.88,-0.898 1.6,-1.773 1.6,-1.944c0,-0.171 0.405,-0.679 0.9,-1.128c0.495,-0.448 1.41,-1.416 2.033,-2.15c1.258,-1.482 5.625,-6.488 8.88,-10.178c1.164,-1.32 2.536,-2.94 3.05,-3.6c0.513,-0.66 1.474,-1.778 2.135,-2.485c2.172,-2.323 3.195,-3.487 5.01,-5.7c0.986,-1.201 2.152,-2.562 2.592,-3.024c0.44,-0.462 1.7,-1.887 2.8,-3.166c1.1,-1.28 2.331,-2.709 2.735,-3.176c0.404,-0.467 1.484,-1.741 2.4,-2.831c0.916,-1.089 2.475,-2.841 3.465,-3.893c0.99,-1.051 2.25,-2.475 2.8,-3.163c0.55,-0.688 1.45,-1.744 2,-2.348c0.55,-0.603 1.72,-1.951 2.6,-2.994c0.88,-1.043 1.96,-2.293 2.4,-2.779c0.44,-0.485 1.34,-1.569 2,-2.409c0.66,-0.84 2.499,-2.901 4.086,-4.579c1.588,-1.679 2.893,-3.278 2.9,-3.553c0.008,-0.275 0.153,-0.5 0.324,-0.5c0.17,0 1.475,-1.38 2.9,-3.067c1.424,-1.687 3.265,-3.786 4.09,-4.665c0.825,-0.879 1.503,-1.704 1.507,-1.833c0.004,-0.129 0.859,-1.152 1.9,-2.272c1.041,-1.12 2.703,-2.988 3.693,-4.152c0.99,-1.163 2.7,-3.113 3.8,-4.334c3.1,-3.44 3.546,-3.946 4.355,-4.945c1.902,-2.35 4.888,-5.792 5.534,-6.379c0.391,-0.356 0.711,-0.738 0.711,-0.85c0,-0.111 0.643,-0.9 1.429,-1.753c0.786,-0.852 2.091,-2.335 2.9,-3.295c0.809,-0.96 2.308,-2.625 3.331,-3.7c1.024,-1.075 1.769,-1.955 1.658,-1.955c-0.111,0 0.356,-0.522 1.04,-1.16c0.683,-0.639 1.246,-1.314 1.252,-1.5c0.005,-0.187 1.441,-1.87 3.19,-3.74c1.749,-1.87 3.185,-3.534 3.19,-3.699c0.006,-0.164 0.872,-1.154 1.926,-2.2c1.053,-1.045 2.628,-2.798 3.5,-3.894c0.871,-1.096 2.346,-2.806 3.277,-3.8c0.931,-0.994 1.696,-1.93 1.7,-2.081c0.004,-0.151 0.997,-1.264 2.207,-2.474c1.21,-1.21 2.2,-2.347 2.2,-2.527c0,-0.18 0.495,-0.796 1.1,-1.369c0.973,-0.922 1.452,-1.668 3.181,-4.956c1.263,-2.402 1.925,-10.178 0.919,-10.8c-0.22,-0.136 -0.4,-0.687 -0.4,-1.224c0,-0.537 -0.135,-0.977 -0.3,-0.979c-0.302,-0.003 -1.3,-1.894 -1.3,-2.463c0,-1.471 -6.896,-6.734 -8.822,-6.734c-0.402,0 -0.83,-0.16 -0.951,-0.356c-0.223,-0.362 -1.792,-0.705 -5.027,-1.101c-0.99,-0.121 -1.971,-0.383 -2.18,-0.582c-0.209,-0.198 -0.873,-0.361 -1.476,-0.361c-0.603,0 -1.208,-0.18 -1.344,-0.4c-0.136,-0.22 -0.957,-0.4 -1.824,-0.4c-0.867,0 -1.576,-0.163 -1.576,-0.361c0,-0.199 -0.855,-0.456 -1.9,-0.572c-2.663,-0.294 -4.565,-0.663 -5.5,-1.067c-0.782,-0.338 -1.853,-0.551 -5.309,-1.056c-0.94,-0.138 -1.806,-0.406 -1.924,-0.597c-0.118,-0.191 -0.798,-0.347 -1.511,-0.347c-0.713,0 -1.512,-0.216 -1.776,-0.48c-0.264,-0.264 -0.48,-0.373 -0.48,-0.242c0,0.131 -0.675,0.073 -1.5,-0.128c-0.825,-0.201 -2.216,-0.464 -3.09,-0.584c-0.875,-0.12 -1.775,-0.366 -2,-0.547c-0.226,-0.181 -1.13,-0.424 -2.01,-0.54c-0.88,-0.116 -2.5,-0.417 -3.6,-0.668c-1.1,-0.251 -2.36,-0.512 -2.8,-0.581c-0.44,-0.068 -1.07,-0.227 -1.4,-0.353c-0.33,-0.127 -1.59,-0.423 -2.8,-0.659c-1.21,-0.236 -2.56,-0.511 -3,-0.611c-0.44,-0.099 -2.15,-0.454 -3.8,-0.788c-1.65,-0.334 -3.893,-0.816 -4.985,-1.072c-1.091,-0.255 -2.261,-0.496 -2.6,-0.534c-0.338,-0.038 -0.885,-0.177 -1.215,-0.309c-0.834,-0.332 -2.705,-0.73 -4.6,-0.977c-0.88,-0.115 -1.771,-0.371 -1.98,-0.568c-0.209,-0.197 -1.053,-0.359 -1.876,-0.359c-0.823,0 -1.608,-0.18 -1.744,-0.4c-0.136,-0.22 -0.967,-0.4 -1.847,-0.4c-0.88,0 -1.51,-0.145 -1.4,-0.323c0.109,-0.178 -0.55,-0.368 -1.467,-0.422c-0.916,-0.054 -1.76,-0.246 -1.876,-0.428c-0.115,-0.181 -0.93,-0.435 -1.81,-0.563c-3.786,-0.552 -4.834,-0.73 -5.4,-0.917c-0.33,-0.109 -0.69,-0.216 -0.8,-0.237c-0.11,-0.022 -0.83,-0.204 -1.6,-0.405c-1.647,-0.43 -4.507,-1.054 -6.2,-1.353c-0.66,-0.116 -1.47,-0.319 -1.8,-0.451c-0.33,-0.131 -1.05,-0.287 -1.6,-0.347c-0.942,-0.101 -2.611,-0.526 -5.428,-1.381c-0.676,-0.205 -1.681,-0.373 -2.234,-0.373c-0.552,0 -1.124,-0.119 -1.27,-0.265c-0.146,-0.146 -0.851,-0.326 -1.566,-0.401c-0.716,-0.074 -1.752,-0.299 -2.302,-0.498c-0.55,-0.199 -2.17,-0.575 -3.6,-0.835c-1.43,-0.26 -2.96,-0.625 -3.4,-0.812c-0.44,-0.187 -1.52,-0.436 -2.4,-0.553c-0.88,-0.118 -1.96,-0.285 -2.4,-0.373c-1.099,-0.22 -3.85,-0.742 -4.702,-0.893c-0.385,-0.069 -0.848,-0.215 -1.028,-0.326c-0.357,-0.221 -1.89,-0.557 -4.07,-0.892c-0.77,-0.119 -1.76,-0.37 -2.2,-0.559c-0.44,-0.189 -1.52,-0.443 -2.4,-0.564c-4.091,-0.564 -5.033,-0.759 -5.233,-1.082c-0.118,-0.191 -0.834,-0.347 -1.591,-0.347c-0.757,0 -1.376,-0.18 -1.376,-0.4c0,-0.22 -0.799,-0.4 -1.776,-0.4c-0.977,0 -1.888,-0.18 -2.024,-0.4c-0.136,-0.22 -0.946,-0.4 -1.8,-0.4c-0.854,0 -1.664,-0.18 -1.8,-0.4c-0.136,-0.22 -0.957,-0.4 -1.824,-0.4c-0.867,0 -1.576,-0.18 -1.576,-0.4c0,-0.22 -0.684,-0.4 -1.52,-0.4c-0.836,0 -1.691,-0.162 -1.9,-0.359c-0.209,-0.197 -1.145,-0.467 -2.08,-0.6c-4.237,-0.601 -4.9,-0.747 -4.9,-1.083c0,-0.197 -0.911,-0.358 -2.024,-0.358c-1.113,0 -1.933,-0.145 -1.823,-0.323c0.109,-0.178 -0.555,-0.368 -1.477,-0.422c-0.922,-0.054 -1.847,-0.268 -2.056,-0.476c-0.209,-0.209 -0.963,-0.379 -1.676,-0.379c-0.713,0 -1.385,-0.142 -1.492,-0.316c-0.108,-0.174 -0.864,-0.362 -1.681,-0.417c-0.817,-0.055 -1.835,-0.287 -2.262,-0.516c-0.428,-0.229 -0.866,-0.328 -0.973,-0.22c-0.108,0.108 -0.768,0.015 -1.466,-0.207c-3.257,-1.032 -8.737,-1.617 -10.11,-1.078m2.84,62.528c0.66,0.158 1.56,0.442 2,0.631c0.44,0.19 1.52,0.452 2.4,0.582c3.329,0.492 4.2,0.711 4.2,1.057c0,0.196 0.72,0.356 1.6,0.356c0.88,0 1.6,0.145 1.6,0.322c0,0.177 0.758,0.366 1.685,0.421c0.926,0.055 1.871,0.247 2.1,0.428c0.228,0.181 0.955,0.43 1.615,0.554c1.333,0.251 3.209,0.697 6.8,1.62c2.496,0.64 14.556,3.544 17,4.092c0.77,0.173 1.611,0.275 1.87,0.228c0.258,-0.047 0.584,0.099 0.723,0.324c0.14,0.226 0.953,0.411 1.807,0.411c0.854,0 1.664,0.18 1.8,0.4c0.136,0.22 0.856,0.4 1.6,0.4c0.744,0 1.464,0.18 1.6,0.4c0.136,0.22 0.766,0.4 1.4,0.4c0.634,0 1.264,0.18 1.4,0.4c0.136,0.22 0.946,0.4 1.8,0.4c0.854,0 1.664,0.18 1.8,0.4c0.136,0.22 0.856,0.4 1.6,0.4c0.744,0 1.464,0.18 1.6,0.4c0.136,0.22 0.856,0.4 1.6,0.4c0.744,0 1.464,0.18 1.6,0.4c0.136,0.22 0.946,0.4 1.8,0.4c0.854,0 1.652,0.16 1.773,0.356c0.121,0.195 0.806,0.452 1.523,0.571c0.717,0.118 2.114,0.421 3.104,0.673c0.99,0.252 2.387,0.555 3.104,0.673c0.717,0.119 1.402,0.376 1.523,0.571c0.121,0.196 0.919,0.356 1.773,0.356c0.854,0 1.664,0.18 1.8,0.4c0.136,0.22 0.856,0.4 1.6,0.4c0.744,0 1.464,0.18 1.6,0.4c0.136,0.22 0.856,0.4 1.6,0.4c0.744,0 1.441,0.142 1.548,0.316c0.108,0.174 0.878,0.363 1.712,0.419c0.833,0.056 1.611,0.229 1.728,0.385c0.117,0.156 0.752,0.343 1.412,0.416c0.66,0.073 1.371,0.297 1.58,0.498c0.209,0.201 0.963,0.366 1.676,0.366c0.713,0 1.408,0.18 1.544,0.4c0.136,0.22 0.856,0.4 1.6,0.4c0.744,0 1.471,0.191 1.615,0.424c0.144,0.233 0.649,0.383 1.123,0.333c0.474,-0.049 1.671,0.139 2.66,0.418c0.99,0.28 2.141,0.575 2.559,0.655c0.418,0.081 1.409,0.367 2.202,0.637c0.792,0.27 1.621,0.512 1.841,0.537c2.506,0.29 4.6,0.766 4.6,1.048c0,0.191 0.253,0.348 0.562,0.348c1.003,0 3.954,1.78 4.145,2.5c0.103,0.385 0.345,0.7 0.54,0.7c1.328,0 -0.284,5.271 -2.092,6.839c-0.415,0.36 -0.755,0.755 -0.755,0.877c0,0.122 -0.495,0.76 -1.1,1.417c-2.017,2.19 -3.886,4.33 -5.3,6.067c-2.351,2.889 -6.138,6.572 -7.3,7.1c-2.228,1.013 -2.918,1.271 -3.7,1.384c-0.44,0.064 -0.908,0.263 -1.04,0.442c-0.297,0.404 -9.041,0.396 -9.689,-0.009c-0.497,-0.311 -1.098,-0.451 -2.571,-0.6c-0.495,-0.05 -0.9,-0.232 -0.9,-0.404c0,-0.172 -0.619,-0.313 -1.376,-0.313c-0.757,0 -1.489,-0.182 -1.627,-0.404c-0.137,-0.223 -0.76,-0.366 -1.383,-0.318c-0.624,0.047 -1.396,-0.131 -1.716,-0.396c-0.319,-0.266 -1.012,-0.456 -1.539,-0.424c-0.528,0.032 -3.088,-0.516 -5.691,-1.218c-2.603,-0.702 -5.483,-1.436 -6.4,-1.632c-0.917,-0.196 -2.388,-0.555 -3.268,-0.797c-0.88,-0.242 -2.5,-0.604 -3.6,-0.803c-3.137,-0.569 -4.338,-0.843 -5.2,-1.188c-0.44,-0.177 -2.51,-0.715 -4.6,-1.196c-2.09,-0.482 -4.16,-1.033 -4.6,-1.225c-0.44,-0.192 -1.43,-0.434 -2.2,-0.537c-0.77,-0.103 -2.12,-0.398 -3,-0.655c-0.88,-0.257 -2.32,-0.624 -3.2,-0.815c-1.731,-0.377 -4.374,-1.014 -6.6,-1.592c-1.572,-0.408 -4.49,-1.1 -6,-1.423c-0.55,-0.118 -1.54,-0.373 -2.2,-0.568c-2.245,-0.663 -4.398,-1.225 -5.2,-1.357c-0.44,-0.073 -1.07,-0.23 -1.4,-0.349c-1.63,-0.591 -16.341,-3.923 -17.276,-3.914c-0.592,0.006 -1.176,-0.149 -1.297,-0.345c-0.121,-0.195 -0.806,-0.452 -1.523,-0.571c-0.717,-0.118 -2.114,-0.412 -3.104,-0.652c-0.99,-0.241 -2.475,-0.548 -3.3,-0.682c-0.825,-0.134 -1.5,-0.401 -1.5,-0.592c0,-0.191 -0.709,-0.347 -1.576,-0.347c-0.867,0 -1.688,-0.18 -1.824,-0.4c-0.136,-0.22 -0.856,-0.4 -1.6,-0.4c-0.744,0 -1.464,-0.18 -1.6,-0.4c-0.136,-0.22 -0.957,-0.4 -1.824,-0.4c-0.867,0 -1.576,-0.18 -1.576,-0.4c0,-0.22 -0.362,-0.4 -0.805,-0.4c-0.443,0 -1.118,-0.16 -1.5,-0.356c-0.382,-0.195 -1.387,-0.69 -2.232,-1.1c-4.445,-2.152 -4.148,-5.358 1.017,-11.005c0.594,-0.649 1.674,-1.915 2.4,-2.812c0.726,-0.898 1.68,-2.017 2.12,-2.486c0.44,-0.469 1.454,-1.661 2.254,-2.647c2.485,-3.067 4.732,-5.152 6.269,-5.82c0.812,-0.353 1.79,-0.806 2.172,-1.008c0.382,-0.201 1.136,-0.366 1.676,-0.366c0.54,0 1.1,-0.191 1.244,-0.425c0.284,-0.459 7.449,-0.31 9.585,0.199" id="path4"></path>
 </g>
</svg>